<?xml version="1.0" encoding="UTF-8"?>
<svg xmlns="http://www.w3.org/2000/svg" version="1.1" width="100" height="100" viewBox="0 0 100 100"><rect x="0" y="0" width="100" height="100" fill="#ffffff"/><g transform="scale(4.762)"><g transform="translate(0,0)"><path fill-rule="evenodd" d="M8 0L8 1L9 1L9 0ZM10 0L10 2L8 2L8 5L9 5L9 6L8 6L8 7L9 7L9 6L10 6L10 7L11 7L11 8L8 8L8 9L7 9L7 8L6 8L6 9L7 9L7 10L5 10L5 9L4 9L4 8L0 8L0 10L2 10L2 11L1 11L1 13L2 13L2 11L3 11L3 13L8 13L8 14L9 14L9 15L10 15L10 14L13 14L13 16L9 16L9 17L8 17L8 21L9 21L9 20L10 20L10 19L9 19L9 18L12 18L12 19L11 19L11 21L12 21L12 19L13 19L13 21L14 21L14 20L15 20L15 21L16 21L16 20L17 20L17 19L14 19L14 18L16 18L16 17L17 17L17 18L18 18L18 19L19 19L19 18L20 18L20 16L21 16L21 15L17 15L17 14L18 14L18 11L16 11L16 10L18 10L18 9L19 9L19 8L16 8L16 9L15 9L15 10L14 10L14 8L13 8L13 6L12 6L12 7L11 7L11 5L9 5L9 4L10 4L10 2L12 2L12 1L13 1L13 0L12 0L12 1L11 1L11 0ZM11 3L11 4L12 4L12 5L13 5L13 3ZM11 8L11 9L10 9L10 10L11 10L11 9L12 9L12 11L11 11L11 12L10 12L10 11L9 11L9 10L7 10L7 11L6 11L6 12L8 12L8 13L9 13L9 14L10 14L10 13L12 13L12 12L13 12L13 14L14 14L14 16L13 16L13 17L14 17L14 16L15 16L15 17L16 17L16 16L17 16L17 15L15 15L15 14L16 14L16 13L17 13L17 12L15 12L15 11L14 11L14 12L13 12L13 8ZM20 8L20 10L19 10L19 11L21 11L21 8ZM3 9L3 10L4 10L4 9ZM4 11L4 12L5 12L5 11ZM14 12L14 14L15 14L15 12ZM19 12L19 13L20 13L20 14L21 14L21 13L20 13L20 12ZM20 19L20 20L21 20L21 19ZM18 20L18 21L19 21L19 20ZM0 0L0 7L7 7L7 0ZM1 1L1 6L6 6L6 1ZM2 2L2 5L5 5L5 2ZM14 0L14 7L21 7L21 0ZM15 1L15 6L20 6L20 1ZM16 2L16 5L19 5L19 2ZM0 14L0 21L7 21L7 14ZM1 15L1 20L6 20L6 15ZM2 16L2 19L5 19L5 16Z" fill="#000000"/></g></g></svg>
